<mxfile host="app.diagrams.net" modified="2023-01-02T12:45:51.562Z" agent="5.0 (Macintosh; Intel Mac OS X 10_15_7) AppleWebKit/537.36 (KHTML, like Gecko) Chrome/108.0.0.0 Safari/537.36" version="20.7.4" etag="8Oezo3VK9ZjQ-Hlzgwr_" type="github">
  <diagram id="b1uKo8GqQIbQDy9yHEFf" name="第 1 页">
    <mxGraphModel dx="1434" dy="828" grid="1" gridSize="10" guides="1" tooltips="1" connect="1" arrows="1" fold="1" page="1" pageScale="1" pageWidth="3300" pageHeight="4681" math="0" shadow="0">
      <root>
        <mxCell id="0" />
        <mxCell id="1" parent="0" />
        <mxCell id="gF5eP7A97Wk7FYz3PQYN-104" style="edgeStyle=orthogonalEdgeStyle;rounded=0;orthogonalLoop=1;jettySize=auto;html=1;exitX=0.5;exitY=1;exitDx=0;exitDy=0;entryX=0.5;entryY=0;entryDx=0;entryDy=0;" edge="1" parent="1" source="gF5eP7A97Wk7FYz3PQYN-102" target="gF5eP7A97Wk7FYz3PQYN-103">
          <mxGeometry relative="1" as="geometry" />
        </mxCell>
        <mxCell id="gF5eP7A97Wk7FYz3PQYN-115" style="edgeStyle=orthogonalEdgeStyle;rounded=0;orthogonalLoop=1;jettySize=auto;html=1;exitX=1;exitY=0.5;exitDx=0;exitDy=0;entryX=0.454;entryY=-0.046;entryDx=0;entryDy=0;entryPerimeter=0;fontSize=18;" edge="1" parent="1" source="gF5eP7A97Wk7FYz3PQYN-102" target="gF5eP7A97Wk7FYz3PQYN-113">
          <mxGeometry relative="1" as="geometry" />
        </mxCell>
        <mxCell id="gF5eP7A97Wk7FYz3PQYN-116" value="quota manage api" style="edgeLabel;html=1;align=center;verticalAlign=middle;resizable=0;points=[];fontSize=18;" vertex="1" connectable="0" parent="gF5eP7A97Wk7FYz3PQYN-115">
          <mxGeometry x="-0.304" y="3" relative="1" as="geometry">
            <mxPoint as="offset" />
          </mxGeometry>
        </mxCell>
        <mxCell id="gF5eP7A97Wk7FYz3PQYN-102" value="&lt;font style=&quot;font-size: 18px;&quot;&gt;&lt;b&gt;AIS&lt;/b&gt;&lt;/font&gt;" style="rounded=0;whiteSpace=wrap;html=1;" vertex="1" parent="1">
          <mxGeometry x="840" y="250" width="120" height="60" as="geometry" />
        </mxCell>
        <mxCell id="gF5eP7A97Wk7FYz3PQYN-123" style="edgeStyle=orthogonalEdgeStyle;rounded=0;orthogonalLoop=1;jettySize=auto;html=1;exitX=0.5;exitY=1;exitDx=0;exitDy=0;entryX=0;entryY=0.5;entryDx=0;entryDy=0;fontSize=18;" edge="1" parent="1" source="gF5eP7A97Wk7FYz3PQYN-103" target="gF5eP7A97Wk7FYz3PQYN-122">
          <mxGeometry relative="1" as="geometry" />
        </mxCell>
        <mxCell id="gF5eP7A97Wk7FYz3PQYN-127" value="Informer" style="edgeLabel;html=1;align=center;verticalAlign=middle;resizable=0;points=[];fontSize=18;" vertex="1" connectable="0" parent="gF5eP7A97Wk7FYz3PQYN-123">
          <mxGeometry x="0.0863" relative="1" as="geometry">
            <mxPoint as="offset" />
          </mxGeometry>
        </mxCell>
        <mxCell id="gF5eP7A97Wk7FYz3PQYN-103" value="&lt;b&gt;&lt;font style=&quot;font-size: 18px;&quot;&gt;kube-apiserver&lt;/font&gt;&lt;/b&gt;" style="rounded=1;whiteSpace=wrap;html=1;labelPosition=center;verticalLabelPosition=bottom;align=center;verticalAlign=top;" vertex="1" parent="1">
          <mxGeometry x="775" y="400" width="250" height="300" as="geometry" />
        </mxCell>
        <mxCell id="gF5eP7A97Wk7FYz3PQYN-105" value="&lt;meta charset=&quot;utf-8&quot;&gt;&lt;span style=&quot;color: rgb(0, 0, 0); font-family: Helvetica; font-size: 12px; font-style: normal; font-variant-ligatures: normal; font-variant-caps: normal; font-weight: 400; letter-spacing: normal; orphans: 2; text-align: center; text-indent: 0px; text-transform: none; widows: 2; word-spacing: 0px; -webkit-text-stroke-width: 0px; background-color: rgb(251, 251, 251); text-decoration-thickness: initial; text-decoration-style: initial; text-decoration-color: initial; float: none; display: inline !important;&quot;&gt;创建 Pod / PV&lt;/span&gt;" style="text;html=1;align=center;verticalAlign=middle;resizable=0;points=[];autosize=1;strokeColor=none;fillColor=none;" vertex="1" parent="1">
          <mxGeometry x="900" y="345" width="100" height="30" as="geometry" />
        </mxCell>
        <mxCell id="gF5eP7A97Wk7FYz3PQYN-106" value="Authn / Authz" style="rounded=1;whiteSpace=wrap;html=1;" vertex="1" parent="1">
          <mxGeometry x="837" y="440" width="120" height="60" as="geometry" />
        </mxCell>
        <mxCell id="gF5eP7A97Wk7FYz3PQYN-112" style="edgeStyle=orthogonalEdgeStyle;rounded=0;orthogonalLoop=1;jettySize=auto;html=1;exitX=1;exitY=0.5;exitDx=0;exitDy=0;fontSize=18;" edge="1" parent="1" source="gF5eP7A97Wk7FYz3PQYN-107">
          <mxGeometry relative="1" as="geometry">
            <mxPoint x="1160" y="555" as="targetPoint" />
          </mxGeometry>
        </mxCell>
        <mxCell id="gF5eP7A97Wk7FYz3PQYN-114" value="precheck quota" style="edgeLabel;html=1;align=center;verticalAlign=middle;resizable=0;points=[];fontSize=18;" vertex="1" connectable="0" parent="gF5eP7A97Wk7FYz3PQYN-112">
          <mxGeometry x="-0.2258" y="2" relative="1" as="geometry">
            <mxPoint as="offset" />
          </mxGeometry>
        </mxCell>
        <mxCell id="gF5eP7A97Wk7FYz3PQYN-107" value="Admission Control" style="rounded=1;whiteSpace=wrap;html=1;" vertex="1" parent="1">
          <mxGeometry x="814" y="520" width="160" height="70" as="geometry" />
        </mxCell>
        <mxCell id="gF5eP7A97Wk7FYz3PQYN-108" value="Validation Webhook" style="text;html=1;strokeColor=none;fillColor=none;align=center;verticalAlign=middle;whiteSpace=wrap;rounded=0;" vertex="1" parent="1">
          <mxGeometry x="810" y="565" width="210" height="30" as="geometry" />
        </mxCell>
        <mxCell id="gF5eP7A97Wk7FYz3PQYN-109" value="etcd" style="rounded=1;whiteSpace=wrap;html=1;" vertex="1" parent="1">
          <mxGeometry x="840" y="610" width="120" height="60" as="geometry" />
        </mxCell>
        <mxCell id="gF5eP7A97Wk7FYz3PQYN-118" style="edgeStyle=orthogonalEdgeStyle;rounded=0;orthogonalLoop=1;jettySize=auto;html=1;exitX=0.5;exitY=1;exitDx=0;exitDy=0;fontSize=18;" edge="1" parent="1" source="gF5eP7A97Wk7FYz3PQYN-113">
          <mxGeometry relative="1" as="geometry">
            <mxPoint x="1280" y="660" as="targetPoint" />
          </mxGeometry>
        </mxCell>
        <mxCell id="gF5eP7A97Wk7FYz3PQYN-113" value="quota manager server" style="rounded=1;whiteSpace=wrap;html=1;fontSize=18;fillColor=#dae8fc;strokeColor=#6c8ebf;" vertex="1" parent="1">
          <mxGeometry x="1160" y="520" width="240" height="65" as="geometry" />
        </mxCell>
        <mxCell id="gF5eP7A97Wk7FYz3PQYN-117" value="MongoDB" style="shape=cylinder3;whiteSpace=wrap;html=1;boundedLbl=1;backgroundOutline=1;size=15;fontSize=18;" vertex="1" parent="1">
          <mxGeometry x="1220" y="670" width="120" height="80" as="geometry" />
        </mxCell>
        <mxCell id="gF5eP7A97Wk7FYz3PQYN-121" value="record quota" style="text;html=1;align=center;verticalAlign=middle;resizable=0;points=[];autosize=1;strokeColor=none;fillColor=none;fontSize=18;" vertex="1" parent="1">
          <mxGeometry x="1290" y="610" width="120" height="40" as="geometry" />
        </mxCell>
        <mxCell id="gF5eP7A97Wk7FYz3PQYN-124" style="edgeStyle=orthogonalEdgeStyle;rounded=0;orthogonalLoop=1;jettySize=auto;html=1;exitX=0.5;exitY=0;exitDx=0;exitDy=0;fontSize=18;" edge="1" parent="1" source="gF5eP7A97Wk7FYz3PQYN-122">
          <mxGeometry relative="1" as="geometry">
            <mxPoint x="1280" y="760" as="targetPoint" />
          </mxGeometry>
        </mxCell>
        <mxCell id="gF5eP7A97Wk7FYz3PQYN-122" value="quota controller" style="rounded=1;whiteSpace=wrap;html=1;fontSize=18;fillColor=#dae8fc;strokeColor=#6c8ebf;" vertex="1" parent="1">
          <mxGeometry x="1175" y="870" width="210" height="60" as="geometry" />
        </mxCell>
        <mxCell id="gF5eP7A97Wk7FYz3PQYN-125" value="period update chargedQuota" style="text;html=1;align=center;verticalAlign=middle;resizable=0;points=[];autosize=1;strokeColor=none;fillColor=none;fontSize=18;" vertex="1" parent="1">
          <mxGeometry x="1020" y="800" width="250" height="40" as="geometry" />
        </mxCell>
        <mxCell id="gF5eP7A97Wk7FYz3PQYN-126" value="record events" style="text;html=1;align=center;verticalAlign=middle;resizable=0;points=[];autosize=1;strokeColor=none;fillColor=none;fontSize=18;" vertex="1" parent="1">
          <mxGeometry x="1285" y="800" width="130" height="40" as="geometry" />
        </mxCell>
      </root>
    </mxGraphModel>
  </diagram>
</mxfile>
